<svg width="57" height="50" viewBox="0 0 57 50" fill="none" xmlns="http://www.w3.org/2000/svg">
<path d="M9.61324 24.986H8.52967L28.423 44.9526L44.7599 28.5555H49.7888L28.423 50L4.38986 25.9063C3.74157 25.2556 3.16737 24.5538 2.66726 23.8009C2.16715 23.0479 1.73186 22.2532 1.36141 21.4166H8.11291L15.9758 13.5527L28.423 26.0178L37.3138 17.1221L41.6203 21.4166H51.4836C52.0763 20.4685 52.5301 19.4646 52.845 18.4049C53.1599 17.3452 53.3174 16.2577 53.3174 15.1422C53.3174 13.5248 53.0164 12.019 52.4144 10.6246C51.8124 9.23033 50.9881 8.01728 49.9416 6.98549C48.8951 5.9537 47.6726 5.145 46.2741 4.55939C44.8757 3.97378 43.3707 3.68098 41.7592 3.68098C40.2033 3.68098 38.8234 3.92731 37.6194 4.41996C36.4155 4.91262 35.3041 5.55865 34.2854 6.35805C33.2666 7.15746 32.2896 8.06376 31.3542 9.07696C30.4188 10.0902 29.4417 11.1173 28.423 12.1584C27.4227 11.1545 26.4503 10.1413 25.5056 9.11879C24.561 8.09629 23.5747 7.17605 22.5467 6.35805C21.5187 5.54006 20.398 4.87079 19.1848 4.35025C17.9716 3.8297 16.6055 3.56943 15.0867 3.56943C13.4937 3.56943 11.998 3.87153 10.5996 4.47574C9.20111 5.07994 7.97862 5.90723 6.93209 6.95761C5.88556 8.00799 5.06131 9.23498 4.45932 10.6386C3.85734 12.0422 3.55634 13.5434 3.55634 15.1422C3.55634 16.016 3.65822 16.9176 3.86197 17.8472H0.222271C0.129658 17.401 0.0694598 16.9548 0.0416759 16.5086C0.013892 16.0625 0 15.6163 0 15.1701C0 13.0693 0.393606 11.0987 1.18082 9.25822C1.96803 7.41773 3.04234 5.80963 4.40375 4.43391C5.76516 3.05819 7.36274 1.97527 9.19648 1.18516C11.0302 0.395054 12.9936 0 15.0867 0C16.6241 0 17.9947 0.176613 19.1987 0.529838C20.4027 0.883063 21.5187 1.37107 22.5467 1.99386C23.5747 2.61666 24.5564 3.36493 25.4918 4.2387C26.4271 5.11247 27.4042 6.0699 28.423 7.11098C29.4417 6.0699 30.4188 5.11247 31.3542 4.2387C32.2896 3.36493 33.2713 2.61666 34.2993 1.99386C35.3273 1.37107 36.4432 0.883063 37.6472 0.529838C38.8512 0.176613 40.2219 0 41.7592 0C43.8338 0 45.7879 0.395054 47.6216 1.18516C49.4554 1.97527 51.053 3.04889 52.4144 4.40602C53.7758 5.76315 54.8501 7.36196 55.6373 9.20245C56.4245 11.0429 56.8181 13.0043 56.8181 15.0864C56.8181 16.8897 56.5032 18.6419 55.8735 20.343C55.2437 22.044 54.3454 23.5917 53.1784 24.986H40.12L37.3138 22.1416L28.423 31.0931L15.9758 18.5722L9.61324 24.986Z" fill="#0B9444"/>
</svg>
