<svg width="32" height="32" viewBox="0 0 32 32" fill="none" xmlns="http://www.w3.org/2000/svg">
<path d="M19.2382 14.1972H17.6366V12.3838C17.6366 11.9029 17.4679 11.4416 17.1675 11.1016C16.8671 10.7615 16.4598 10.5704 16.035 10.5704C15.6102 10.5704 15.2029 10.7615 14.9025 11.1016C14.6022 11.4416 14.4334 11.9029 14.4334 12.3838V14.1972H12.8319C12.4071 14.1972 11.9997 14.3883 11.6994 14.7284C11.399 15.0684 11.2303 15.5297 11.2303 16.0106C11.2303 16.4916 11.399 16.9528 11.6994 17.2929C11.9997 17.633 12.4071 17.824 12.8319 17.824H14.4334V19.6374C14.4334 20.1184 14.6022 20.5796 14.9025 20.9197C15.2029 21.2598 15.6102 21.4508 16.035 21.4508C16.4598 21.4508 16.8671 21.2598 17.1675 20.9197C17.4679 20.5796 17.6366 20.1184 17.6366 19.6374V17.824H19.2382C19.6629 17.824 20.0703 17.633 20.3707 17.2929C20.671 16.9528 20.8398 16.4916 20.8398 16.0106C20.8398 15.5297 20.671 15.0684 20.3707 14.7284C20.0703 14.3883 19.6629 14.1972 19.2382 14.1972ZM29.1039 3.31683C27.3961 1.40316 25.1405 0.243616 22.7441 0.0474268C20.3476 -0.148763 17.9681 0.631325 16.035 2.24693C13.9973 0.530797 11.4609 -0.247378 8.93668 0.0691069C6.41248 0.385592 4.08793 1.77323 2.43115 3.95258C0.774366 6.13194 -0.0915838 8.94113 0.00768023 11.8144C0.106944 14.6878 1.16405 17.4118 2.96612 19.4379L12.5756 30.409C13.4765 31.4278 14.6977 32 15.971 32C17.2442 32 18.4654 31.4278 19.3663 30.409L28.9758 19.4379C29.9222 18.391 30.6766 17.1425 31.1955 15.7644C31.7144 14.3863 31.9877 12.9056 31.9996 11.4075C32.0115 9.90945 31.7618 8.42347 31.2649 7.03499C30.7679 5.64651 30.0335 4.38292 29.1039 3.31683ZM26.8457 16.8448L17.2362 27.7252C17.0873 27.8951 16.9102 28.03 16.715 28.1221C16.5198 28.2142 16.3105 28.2616 16.0991 28.2616C15.8876 28.2616 15.6783 28.2142 15.4831 28.1221C15.288 28.03 15.1108 27.8951 14.962 27.7252L5.35247 16.8448C4.09645 15.3911 3.39312 13.4383 3.39312 11.4046C3.39312 9.37093 4.09645 7.41811 5.35247 5.9644C6.63238 4.5336 8.35859 3.73132 10.1572 3.73132C11.9558 3.73132 13.682 4.5336 14.962 5.9644C15.1108 6.13436 15.288 6.26927 15.4831 6.36133C15.6783 6.4534 15.8876 6.5008 16.0991 6.5008C16.3105 6.5008 16.5198 6.4534 16.715 6.36133C16.9102 6.26927 17.0873 6.13436 17.2362 5.9644C18.5161 4.5336 20.2423 3.73132 22.0409 3.73132C23.8396 3.73132 25.5658 4.5336 26.8457 5.9644C28.1113 7.41973 28.8208 9.38026 28.8208 11.4227C28.8208 13.4652 28.1113 15.4257 26.8457 16.881V16.8448Z" fill="#FCFEFE"/>
</svg>
