<svg width="32" height="32" viewBox="0 0 32 32" fill="none" xmlns="http://www.w3.org/2000/svg">
<path d="M11.7601 15.0533C11.6352 15.1773 11.536 15.3248 11.4683 15.4872C11.4006 15.6497 11.3657 15.824 11.3657 16C11.3657 16.176 11.4006 16.3503 11.4683 16.5128C11.536 16.6753 11.6352 16.8227 11.7601 16.9467C12.01 17.195 12.3479 17.3344 12.7001 17.3344C13.0524 17.3344 13.3903 17.195 13.6401 16.9467C13.7651 16.8227 13.8643 16.6753 13.932 16.5128C13.9997 16.3503 14.0345 16.176 14.0345 16C14.0345 15.824 13.9997 15.6497 13.932 15.4872C13.8643 15.3248 13.7651 15.1773 13.6401 15.0533C13.3903 14.805 13.0524 14.6656 12.7001 14.6656C12.3479 14.6656 12.01 14.805 11.7601 15.0533ZM15.0535 18.36C14.8051 18.6098 14.6658 18.9478 14.6658 19.3C14.6658 19.6523 14.8051 19.9902 15.0535 20.24C15.1774 20.365 15.3249 20.4642 15.4874 20.5319C15.6499 20.5996 15.8241 20.6344 16.0001 20.6344C16.1762 20.6344 16.3504 20.5996 16.5129 20.5319C16.6754 20.4642 16.8229 20.365 16.9468 20.24C17.1951 19.9902 17.3345 19.6523 17.3345 19.3C17.3345 18.9478 17.1951 18.6098 16.9468 18.36C16.8229 18.235 16.6754 18.1358 16.5129 18.0681C16.3504 18.0005 16.1762 17.9656 16.0001 17.9656C15.8241 17.9656 15.6499 18.0005 15.4874 18.0681C15.3249 18.1358 15.1774 18.235 15.0535 18.36ZM27.0535 5.02667C25.6031 3.5643 23.6446 2.71768 21.5856 2.66304C19.5267 2.6084 17.5261 3.34996 16.0001 4.73334C14.4813 3.36611 12.4968 2.63198 10.4538 2.68156C8.41078 2.73115 6.46422 3.5607 5.01347 5C3.57216 6.45312 2.74261 8.40339 2.69548 10.4495C2.64836 12.4957 3.38725 14.4821 4.76014 16C3.7337 17.1475 3.06019 18.5668 2.82042 20.0877C2.58065 21.6085 2.78481 23.1662 3.40841 24.5738C4.032 25.9815 5.04853 27.1793 6.33601 28.0235C7.6235 28.8678 9.12725 29.3226 10.6668 29.3333C12.6404 29.3354 14.5433 28.5981 16.0001 27.2667C17.5198 28.6378 19.5071 29.3744 21.5533 29.3247C23.5994 29.2751 25.5488 28.4432 27.0001 27C28.4396 25.5452 29.2667 23.5939 29.3114 21.5478C29.356 19.5017 28.6148 17.5163 27.2401 16C28.6148 14.4838 29.356 12.4983 29.3114 10.4522C29.2667 8.40606 28.4396 6.45485 27.0001 5L27.0535 5.02667ZM25.1068 6.89334C26.034 7.84719 26.5714 9.11312 26.6133 10.4427C26.6552 11.7723 26.1988 13.0696 25.3335 14.08L17.9201 6.66667C18.9394 5.82098 20.2327 5.37721 21.5564 5.41896C22.8801 5.46071 24.1429 5.9851 25.1068 6.89334ZM6.89347 25.1067C5.96623 24.1528 5.42892 22.8869 5.38699 21.5573C5.34505 20.2277 5.80152 18.9304 6.66681 17.92L14.1335 25.3867C13.103 26.2374 11.7954 26.679 10.4601 26.6274C9.12479 26.5757 7.85522 26.0344 6.89347 25.1067ZM25.1068 25.1067C24.0945 26.0749 22.7476 26.6153 21.3468 26.6153C19.946 26.6153 18.5992 26.0749 17.5868 25.1067L6.92014 14.44C5.9268 13.4407 5.36925 12.089 5.36925 10.68C5.36925 9.27101 5.9268 7.91927 6.92014 6.92C7.91941 5.92666 9.27115 5.36911 10.6801 5.36911C12.0891 5.36911 13.4409 5.92666 14.4401 6.92L25.1068 17.5867C26.1001 18.5859 26.6577 19.9377 26.6577 21.3467C26.6577 22.7557 26.1001 24.1074 25.1068 25.1067ZM18.3601 15.0533C18.2352 15.1773 18.136 15.3248 18.0683 15.4872C18.0006 15.6497 17.9657 15.824 17.9657 16C17.9657 16.176 18.0006 16.3503 18.0683 16.5128C18.136 16.6753 18.2352 16.8227 18.3601 16.9467C18.61 17.195 18.9479 17.3344 19.3001 17.3344C19.6524 17.3344 19.9903 17.195 20.2401 16.9467C20.3651 16.8227 20.4643 16.6753 20.532 16.5128C20.5997 16.3503 20.6345 16.176 20.6345 16C20.6345 15.824 20.5997 15.6497 20.532 15.4872C20.4643 15.3248 20.3651 15.1773 20.2401 15.0533C19.9903 14.805 19.6524 14.6656 19.3001 14.6656C18.9479 14.6656 18.61 14.805 18.3601 15.0533ZM15.0535 11.76C14.8051 12.0098 14.6658 12.3478 14.6658 12.7C14.6658 13.0522 14.8051 13.3902 15.0535 13.64C15.1774 13.765 15.3249 13.8642 15.4874 13.9319C15.6499 13.9995 15.8241 14.0344 16.0001 14.0344C16.1762 14.0344 16.3504 13.9995 16.5129 13.9319C16.6754 13.8642 16.8229 13.765 16.9468 13.64C17.1951 13.3902 17.3345 13.0522 17.3345 12.7C17.3345 12.3478 17.1951 12.0098 16.9468 11.76C16.8229 11.635 16.6754 11.5358 16.5129 11.4681C16.3504 11.4005 16.1762 11.3656 16.0001 11.3656C15.8241 11.3656 15.6499 11.4005 15.4874 11.4681C15.3249 11.5358 15.1774 11.635 15.0535 11.76Z" fill="#0B9444"/>
</svg>
