<svg width="25" height="24" viewBox="0 0 25 24" fill="none" xmlns="http://www.w3.org/2000/svg">
<path d="M16.9565 8.31375C16.8524 8.04406 16.6929 7.79917 16.4884 7.59486C16.2838 7.39055 16.0388 7.23134 15.769 7.1275C15.3975 6.9899 15.0051 6.91718 14.609 6.9125C13.9502 6.8825 13.7527 6.875 12.084 6.875C10.4152 6.875 10.2177 6.8825 9.55899 6.9125C9.16244 6.91704 8.76963 6.98976 8.39774 7.1275C8.12805 7.23163 7.88316 7.39109 7.67885 7.59562C7.47454 7.80015 7.31533 8.0452 7.21149 8.315C7.07389 8.68649 7.00117 9.07887 6.99649 9.475C6.96649 10.1337 6.95899 10.3312 6.95899 12C6.95899 13.6687 6.96649 13.8662 6.99649 14.525C7.00103 14.9215 7.07375 15.3144 7.21149 15.6862C7.31562 15.9559 7.47508 16.2008 7.67961 16.4051C7.88413 16.6094 8.12919 16.7687 8.39899 16.8725C8.77048 17.0101 9.16286 17.0828 9.55899 17.0875C10.2177 17.1175 10.4152 17.1237 12.084 17.1237C13.7527 17.1237 13.9502 17.1175 14.609 17.0862C15.0055 17.0821 15.3983 17.0098 15.7702 16.8725C16.0399 16.7684 16.2848 16.6089 16.4891 16.4044C16.6934 16.1998 16.8526 15.9548 16.9565 15.685C17.0941 15.3135 17.1668 14.9211 17.1715 14.525C17.2015 13.8662 17.2077 13.6687 17.2077 12C17.2077 10.3312 17.2015 10.1337 17.1702 9.475C17.1661 9.07852 17.0938 8.68571 16.9565 8.31375ZM12.084 15.21C11.4491 15.21 10.8285 15.0217 10.3006 14.669C9.77273 14.3163 9.36129 13.815 9.11833 13.2284C8.87538 12.6419 8.81181 11.9964 8.93567 11.3738C9.05953 10.7511 9.36525 10.1791 9.81417 9.73018C10.2631 9.28126 10.8351 8.97554 11.4577 8.85168C12.0804 8.72782 12.7259 8.79139 13.3124 9.03434C13.899 9.2773 14.4003 9.68874 14.753 10.2166C15.1057 10.7445 15.294 11.3651 15.294 12C15.294 12.8513 14.9558 13.6678 14.3538 14.2698C13.7518 14.8718 12.9353 15.21 12.084 15.21ZM15.4202 9.41375C15.2719 9.41375 15.1269 9.36976 15.0036 9.28735C14.8802 9.20494 14.7841 9.0878 14.7273 8.95076C14.6706 8.81372 14.6557 8.66292 14.6846 8.51743C14.7136 8.37194 14.785 8.23831 14.8899 8.13342C14.9948 8.02853 15.1284 7.9571 15.2739 7.92816C15.4194 7.89922 15.5702 7.91407 15.7072 7.97084C15.8443 8.0276 15.9614 8.12373 16.0438 8.24707C16.1262 8.37041 16.1702 8.51541 16.1702 8.66375C16.1702 8.86266 16.0912 9.05343 15.9506 9.19408C15.8099 9.33473 15.6191 9.41375 15.4202 9.41375ZM14.1677 12C14.1677 12.4121 14.0455 12.815 13.8166 13.1577C13.5876 13.5003 13.2622 13.7674 12.8814 13.9251C12.5006 14.0828 12.0817 14.1241 11.6775 14.0437C11.2733 13.9633 10.902 13.7648 10.6106 13.4734C10.3191 13.182 10.1207 12.8107 10.0403 12.4065C9.95987 12.0023 10.0011 11.5833 10.1589 11.2026C10.3166 10.8218 10.5836 10.4964 10.9263 10.2674C11.269 10.0385 11.6719 9.91625 12.084 9.91625C12.6366 9.91625 13.1666 10.1358 13.5574 10.5266C13.9482 10.9173 14.1677 11.4474 14.1677 12ZM12.084 0C9.71061 0 7.39053 0.703787 5.41715 2.02236C3.44376 3.34094 1.90569 5.21508 0.997435 7.4078C0.0891837 9.60051 -0.148456 12.0133 0.314566 14.3411C0.777589 16.6689 1.92048 18.807 3.59871 20.4853C5.27694 22.1635 7.41513 23.3064 9.7429 23.7694C12.0707 24.2324 14.4835 23.9948 16.6762 23.0865C18.8689 22.1783 20.743 20.6402 22.0616 18.6668C23.3802 16.6934 24.084 14.3734 24.084 12C24.084 8.8174 22.8197 5.76515 20.5693 3.51472C18.3188 1.26428 15.2666 0 12.084 0ZM18.2965 14.5762C18.2859 15.0949 18.1874 15.608 18.0052 16.0937C17.8447 16.5088 17.5992 16.8858 17.2845 17.2005C16.9698 17.5152 16.5928 17.7607 16.1777 17.9212C15.6924 18.1033 15.1797 18.2018 14.6615 18.2125C13.994 18.2425 13.7815 18.25 12.084 18.25C10.3865 18.25 10.174 18.2425 9.50649 18.2125C8.98825 18.2018 8.47557 18.1033 7.99024 17.9212C7.57514 17.7607 7.19816 17.5152 6.88346 17.2005C6.56875 16.8858 6.32327 16.5088 6.16274 16.0937C5.98069 15.6084 5.88221 15.0957 5.87149 14.5775C5.84149 13.91 5.83399 13.6975 5.83399 12C5.83399 10.3025 5.84149 10.09 5.87149 9.4225C5.88181 8.90433 5.97987 8.39165 6.16149 7.90625C6.32201 7.4908 6.56762 7.1135 6.88255 6.79856C7.19749 6.48363 7.57479 6.23802 7.99024 6.0775C8.47564 5.89588 8.98832 5.79782 9.50649 5.7875C10.174 5.7575 10.3865 5.75 12.084 5.75C13.7815 5.75 13.994 5.7575 14.6615 5.7875C15.1797 5.79782 15.6923 5.89588 16.1777 6.0775C16.593 6.23817 16.97 6.48384 17.2847 6.79877C17.5994 7.11369 17.8449 7.49092 18.0052 7.90625C18.1873 8.39158 18.2858 8.90426 18.2965 9.4225C18.3265 10.09 18.334 10.3025 18.334 12C18.334 13.6975 18.3265 13.91 18.2965 14.5775V14.5762Z" fill="#FCFEFE"/>
</svg>
