<svg width="29" height="23" viewBox="0 0 29 23" fill="none" xmlns="http://www.w3.org/2000/svg">
<path d="M26.3835 0.107498L26.3738 0.1105L0.877735 8.44824C0.662713 8.51791 0.472888 8.62864 0.325241 8.7705C0.177594 8.91236 0.076729 9.08094 0.0316701 9.26116C-0.01806 9.44988 -0.00765781 9.64541 0.0619407 9.83016C0.131539 10.0149 0.25815 10.1831 0.430382 10.3195L5.21064 14.0984C5.44644 14.2847 5.75706 14.4001 6.08897 14.4247C6.42088 14.4494 6.75327 14.3817 7.02887 14.2334L18.6753 7.90009C18.7212 7.87535 18.7766 7.86405 18.832 7.86816C18.8873 7.87227 18.9391 7.89153 18.9784 7.9226C19.0177 7.95367 19.0421 7.99462 19.0473 8.03837C19.0525 8.08213 19.0382 8.12594 19.0069 8.16226L10.9956 17.3685C10.808 17.5862 10.7222 17.8489 10.7532 18.1112C10.7841 18.3734 10.9298 18.619 11.1652 18.8055L15.9463 22.585C16.1108 22.7153 16.3137 22.8112 16.5367 22.8641C16.7597 22.9171 16.9959 22.9255 17.224 22.8885C17.4991 22.8447 17.7519 22.7377 17.9506 22.581C18.0885 22.4718 18.1974 22.3419 18.2709 22.199L28.8604 2.07814L28.8646 2.0688C29.0029 1.79463 29.0366 1.49442 28.9613 1.20531C28.8861 0.916204 28.7052 0.650883 28.4412 0.442175C28.1772 0.233467 27.8416 0.0905287 27.4759 0.0310458C27.1101 -0.0284389 26.7304 -0.00185824 26.3835 0.107498Z" fill="#0B9444"/>
</svg>
